<svg xmlns="http://www.w3.org/2000/svg" width="8.742" height="8" viewBox="0 0 8.742 8">
  <g id="Group_75" data-name="Group 75" transform="translate(-104.252 -173.8)" opacity="0.7">
    <g id="Group_41" data-name="Group 41" transform="translate(104.252 173.8)">
      <path id="Path_222" data-name="Path 222" d="M108.623,181.677a.719.719,0,1,0,.719.719A.719.719,0,0,0,108.623,181.677Zm4.229.379A6.571,6.571,0,0,0,108.623,180a6.571,6.571,0,0,0-4.229,2.055.477.477,0,0,0,0,.68,6.571,6.571,0,0,0,4.229,2.055,6.571,6.571,0,0,0,4.229-2.055A.477.477,0,0,0,112.851,182.055Zm-4.229,1.777a1.437,1.437,0,1,1,1.437-1.437A1.437,1.437,0,0,1,108.623,183.832Z" transform="translate(-104.252 -178.515)" fill="#fff"/>
      <path id="Path_223" data-name="Path 223" d="M107.16,173.8h-1.149a.711.711,0,0,0-.711.71v1.15a.359.359,0,0,0,.719,0l-.008-1.142h1.149a.359.359,0,0,0,0-.719Zm0,7.281-1.141.008V179.94a.359.359,0,1,0-.719,0v1.149a.711.711,0,0,0,.711.711h1.149a.359.359,0,1,0,0-.719Zm5.429-7.281H111.44a.359.359,0,0,0,0,.719l1.141-.008v1.15a.359.359,0,0,0,.719,0v-1.15A.711.711,0,0,0,112.589,173.8Zm.351,5.781a.359.359,0,0,0-.359.359l.008,1.142H111.44a.359.359,0,1,0,0,.719h1.149a.711.711,0,0,0,.711-.711V179.94A.359.359,0,0,0,112.941,179.581Z" transform="translate(-105.049 -173.8)" fill="#fff"/>
    </g>
  </g>
</svg>
