<svg xmlns="http://www.w3.org/2000/svg" width="40" height="40" viewBox="0 0 40 40"><g transform="translate(-271 -424)"><g transform="translate(271 424)" fill="none" stroke="#ffe457" stroke-width="2" opacity="0.8"><circle cx="20" cy="20" r="20" stroke="none"/><circle cx="20" cy="20" r="19" fill="none"/></g><g transform="translate(282.886 434.269)"><g transform="translate(0)"><path d="M316.319,188.463a.687.687,0,0,0-.786.579,29.746,29.746,0,0,1-.958,4.272.691.691,0,0,0,.458.863.7.7,0,0,0,.2.03.691.691,0,0,0,.66-.488,31.276,31.276,0,0,0,1-4.471A.69.69,0,0,0,316.319,188.463Zm5.894-7.083a2.914,2.914,0,0,0-2.419.505,4.074,4.074,0,0,0-1.386,3.04,42.985,42.985,0,0,1-.681,6,.69.69,0,0,0,1.355.265,44.287,44.287,0,0,0,.7-6.19,2.76,2.76,0,0,1,.854-2.024,1.528,1.528,0,0,1,1.3-.242c1.124.224,1.506,1.057,1.4,3.074a42.537,42.537,0,0,1-.7,5.854.689.689,0,0,0,.548.807.665.665,0,0,0,.13.013.691.691,0,0,0,.678-.561,43.9,43.9,0,0,0,.727-6.045C324.782,184.794,324.925,181.919,322.214,181.38Zm.741,12.158a.692.692,0,0,0-.841.5c-.13.5-.274,1-.427,1.5a.691.691,0,0,0,1.321.406c.158-.516.308-1.034.443-1.556A.691.691,0,0,0,322.955,193.538Z" transform="translate(-312.57 -176.348)" fill="#ffe457"/><path d="M316.483,188.544a.693.693,0,0,0-.845.488c-.133.5-.291,1.019-.482,1.593a.691.691,0,0,0,1.311.436c.2-.6.365-1.148.505-1.672A.691.691,0,0,0,316.483,188.544Zm3.51-8.762h0a.691.691,0,0,0-.69.688,34.633,34.633,0,0,1-1.76,10.894.691.691,0,0,0,.431.876.7.7,0,0,0,.223.037.692.692,0,0,0,.654-.468,36.048,36.048,0,0,0,1.834-11.334A.69.69,0,0,0,319.993,179.782Zm-.057-6.075a.69.69,0,0,0-.012-1.381,8.224,8.224,0,0,0-7.856,6.237,13.66,13.66,0,0,0-.278,2.716c-.017.47-.032.914-.072,1.354a32.069,32.069,0,0,1-.731,4.524.691.691,0,0,0,.51.833.705.705,0,0,0,.161.019.69.69,0,0,0,.671-.53,33.48,33.48,0,0,0,.763-4.72c.044-.478.06-.963.077-1.432a12.541,12.541,0,0,1,.241-2.445A6.829,6.829,0,0,1,319.936,173.707Zm3.126-.783a.69.69,0,0,0-.52,1.279c2.738,1.113,4.307,3.776,4.2,7.126a45.791,45.791,0,0,1-.947,7.841.69.69,0,0,0,.535.817.656.656,0,0,0,.142.015.691.691,0,0,0,.675-.549,47.209,47.209,0,0,0,.975-8.078C328.247,177.482,326.31,174.243,323.062,172.924Zm-3.257,1.892a5.727,5.727,0,0,0-4.646,2.7,7.511,7.511,0,0,0-.867,3.833c-.012.309-.025.619-.049.928a.69.69,0,0,0,1.376.1c.025-.325.039-.652.052-.976a6.369,6.369,0,0,1,.664-3.168,4.289,4.289,0,0,1,7.421.2,7.22,7.22,0,0,1,.438,4.03l-.017.237a.69.69,0,0,0,.64.737l.049,0a.691.691,0,0,0,.688-.642l.017-.235a8.472,8.472,0,0,0-.6-4.787A5.732,5.732,0,0,0,319.806,174.816Zm4.924,9.552a.7.7,0,0,0-.768.6,43.3,43.3,0,0,1-1.124,5.937.69.69,0,0,0,1.334.356,44.706,44.706,0,0,0,1.16-6.127A.691.691,0,0,0,324.729,184.368Z" transform="translate(-310.968 -172.326)" fill="#ffe457"/></g></g></g></svg>