<svg width="24" height="24" xmlns="http://www.w3.org/2000/svg"><g fill="#FFF" fill-rule="nonzero" opacity=".996"><path d="M8.864 15.251a.272.272 0 00-.259-.188H7.271a4.27 4.27 0 00-4.27 4.27v1.9a.635.635 0 00.636.635h7.009a.273.273 0 00.257-.366l-2.039-6.251zm8.839-.188h-1.33a.272.272 0 00-.259.188l-2.039 6.255a.272.272 0 00.259.357h7a.635.635 0 00.636-.635v-1.9a4.27 4.27 0 00-4.267-4.265zm.021-6.825a5.238 5.238 0 10-10.476-.002 5.238 5.238 0 0010.476.002zM12.487 15.212a.818.818 0 00-.818.818v4.361a.818.818 0 101.635 0V16.03a.818.818 0 00-.817-.818z"/></g></svg>