<svg width="24" height="24" xmlns="http://www.w3.org/2000/svg"><g fill="#FFF" fill-rule="nonzero"><path d="M19.561 2.777a.708.708 0 00-.708.708v13.321a.708.708 0 001.416 0V3.485a.708.708 0 00-.708-.708z"/><path d="M19.073 19.033h-13.1a.743.743 0 010-1.485h10.915a.566.566 0 00.566-.566V2.566A.567.567 0 0016.888 2H5.266A2.266 2.266 0 003 4.266v14.728a2.266 2.266 0 002.266 2.266h13.807a1.113 1.113 0 100-2.227zM11.311 8.655l-1.307-.673a1.886 1.886 0 01-.994-2.04 1.831 1.831 0 011.4-1.478v-.2a.708.708 0 011.416 0v.351c.517.232.929.648 1.155 1.167a.709.709 0 01-1.3.565.872.872 0 00-.873-.519.441.441 0 00-.412.374.469.469 0 00.25.521l1.308.673a1.879 1.879 0 011 2 1.825 1.825 0 01-1.133 1.429v.238a.708.708 0 01-1.416 0v-.189a2.282 2.282 0 01-1.441-1.28.709.709 0 111.3-.564c.15.341.501.55.873.519l.063-.007a.421.421 0 00.356-.369.478.478 0 00-.245-.518zm-3.168 4.317h5.664a.708.708 0 010 1.416H8.143a.708.708 0 010-1.416z"/></g></svg>