<svg xmlns="http://www.w3.org/2000/svg" width="60" height="60" viewBox="0 0 60 60"><g transform="translate(-24 -145)"><circle cx="30" cy="30" r="30" transform="translate(24 145)" fill="#ffe457"/><g transform="translate(-1956.717 -4288.871)"><path d="M2090.81,4722.774c.115.014.162.1.224.164q1.862,1.858,3.721,3.72c.473.473.955.938,1.415,1.424.171.181.262.189.444,0,1.7-1.714,3.411-3.413,5.108-5.128.191-.193.281-.188.466,0q1.4,1.436,2.837,2.84c.157.155.172.232.005.4q-4.224,4.206-8.43,8.43c-.17.17-.249.141-.4-.011q-3.144-3.158-6.3-6.3c-.709-.709-1.415-1.422-2.131-2.124-.142-.139-.178-.217-.015-.377.976-.959,1.939-1.932,2.907-2.9C2090.711,4722.862,2090.764,4722.817,2090.81,4722.774Z" transform="translate(-85.877 -256.992)" fill="#434346"/><path d="M2105.33,4457.905c-.039.042-.078.086-.12.128-.982.982-1.969,1.959-2.941,2.951-.171.174-.241.074-.354-.038-1.712-1.714-3.43-3.422-5.133-5.145-.2-.206-.3-.172-.481.011-1.7,1.712-3.411,3.413-5.109,5.125-.172.174-.259.16-.421,0q-1.408-1.43-2.838-2.839c-.156-.154-.2-.238-.015-.42q4.224-4.2,8.428-8.429c.165-.166.25-.162.391.007.2.24.412.47.634.689,1.229,1.218,2.475,2.42,3.69,3.653.5.511.977,1.054,1.506,1.537.9.819,1.724,1.71,2.6,2.556C2105.224,4457.749,2105.31,4457.8,2105.33,4457.905Z" transform="translate(-86.018)" fill="#434346"/><path d="M2367.818,4634.761c0,.087-.057.121-.1.162q-1.492,1.494-2.984,2.989c-.106.106-.167.1-.267,0q-1.5-1.508-3.009-3.007c-.114-.112-.081-.171.013-.265q1.5-1.49,2.986-2.987c.1-.1.158-.112.265,0q1.5,1.51,3.005,3.011C2367.764,4634.692,2367.794,4634.732,2367.818,4634.761Z" transform="translate(-342.953 -171.34)" fill="#434346"/><path d="M2002.645,4634.759c-.046.049-.086.094-.128.137-.989.988-1.98,1.974-2.963,2.969-.129.131-.194.105-.309-.01q-1.466-1.478-2.946-2.942c-.143-.141-.113-.209.011-.332q1.479-1.466,2.947-2.942c.079-.079.131-.161.259-.031,1,1.016,2.017,2.024,3.026,3.035C2002.576,4634.676,2002.607,4634.715,2002.645,4634.759Z" transform="translate(0 -171.311)" fill="#434346"/><path d="M2002.645,4634.759c-.046.049-.086.094-.128.137-.989.988-1.98,1.974-2.963,2.969-.129.131-.194.105-.309-.01q-1.466-1.478-2.946-2.942c-.143-.141-.113-.209.011-.332q1.479-1.466,2.947-2.942c.079-.079.131-.161.259-.031,1,1.016,2.017,2.024,3.026,3.035C2002.576,4634.676,2002.607,4634.715,2002.645,4634.759Z" transform="translate(11 -171.311)" fill="#434346"/></g></g></svg>