<svg xmlns="http://www.w3.org/2000/svg" width="13.117" height="16.785" viewBox="0 0 13.117 16.785">
  <g id="Group_601" data-name="Group 601" transform="translate(-843.953 -1273.895)">
    <path id="Path_686" data-name="Path 686" d="M851.91,1290.391c.135-.09.267-.168.388-.261a1.975,1.975,0,0,0,.745-1.322,2.289,2.289,0,0,0-.109-1.234,1.643,1.643,0,0,0-1.409-1.1,2.084,2.084,0,0,0-.9.115,1.758,1.758,0,0,1-1.144.033,1.65,1.65,0,0,1-1.048-1.1,2.955,2.955,0,0,1-.082-1.52c.031-.171.073-.34.113-.522-.028.022-.049.036-.067.053a4.893,4.893,0,0,0-1.544,2.654,4.194,4.194,0,0,0,.788,3.537,3.912,3.912,0,0,0,1.114.951c-.071-.015-.143-.028-.214-.046a8.114,8.114,0,0,1-1.935-.745,5.01,5.01,0,0,1-2.25-2.394,4.928,4.928,0,0,1-.4-2.1,5.643,5.643,0,0,1,1.611-3.89,15.528,15.528,0,0,1,1.708-1.507,17.536,17.536,0,0,0,1.509-1.261,3.758,3.758,0,0,0,1.026-1.59,3.7,3.7,0,0,0,.125-1.4,7.048,7.048,0,0,0-.42-1.767.142.142,0,0,1-.008-.086c.2.133.409.261.607.4a6.528,6.528,0,0,1,1.689,1.643,3.974,3.974,0,0,1,.719,1.845,3.488,3.488,0,0,1-.953,2.875,1.935,1.935,0,0,0-.439.651,1.087,1.087,0,0,0,.853,1.471,1.431,1.431,0,0,0,1.617-1.1,3.005,3.005,0,0,0,.012-.807,3.757,3.757,0,0,1,.144-1.31,1.867,1.867,0,0,1,1.462-1.309c.152-.035.308-.054.485-.084-.023.047-.035.075-.049.1a3.067,3.067,0,0,0-.332,1.044,1.98,1.98,0,0,0,.227,1.17c.2.376.43.737.656,1.1a5.5,5.5,0,0,1,.748,1.662,5,5,0,0,1,.086,1.672,6.254,6.254,0,0,1-.661,2.227,5.872,5.872,0,0,1-3.293,2.922c-.354.13-.727.21-1.091.313A.48.48,0,0,1,851.91,1290.391Z" fill="#d87676"/>
  </g>
</svg>
