<svg width="24" height="24" xmlns="http://www.w3.org/2000/svg"><g fill="#FFF" fill-rule="nonzero"><path d="M17.408 11.525h3.1V8.746a.98.98 0 00-.98-.98H13.02a5.619 5.619 0 01-8.676 4.363v6.9a1.959 1.959 0 001.959 1.959h13.224a.98.98 0 00.98-.98v-2.446h-3.1a3.02 3.02 0 110-6.041l.001.004zm1.632-5.228v-.98a.98.98 0 00-.98-.98h-5.937c.39.596.664 1.26.805 1.959l6.112.001z"/><path d="M7.408 3a4.408 4.408 0 100 8.816 4.408 4.408 0 000-8.816zm-.214 3.564l1 .512a1.5 1.5 0 01.8 1.6c-.074.498-.4.924-.861 1.125v.133a.612.612 0 11-1.224 0V9.84a1.811 1.811 0 01-1.092-1 .612.612 0 111.123-.489c.1.233.34.375.592.352a.26.26 0 00.253-.225.294.294 0 00-.155-.317l-1-.513a1.509 1.509 0 01-.8-1.632 1.468 1.468 0 011.069-1.173v-.245a.612.612 0 111.224 0v.379c.39.185.7.505.873.9a.612.612 0 01-1.123.488.592.592 0 00-.592-.352.263.263 0 00-.248.226.283.283 0 00.161.327v-.002zm13.561 6.186h-3.347a1.8 1.8 0 100 3.592h3.347c.135 0 .245-.11.245-.245v-3.1a.245.245 0 00-.245-.247zm-2.939 2.53a.735.735 0 110-1.47.735.735 0 010 1.47z"/></g></svg>