<svg width="24" height="24" xmlns="http://www.w3.org/2000/svg"><g fill="#FFF" fill-rule="nonzero"><path d="M16.886 2a4.58 4.58 0 100 9.16 4.58 4.58 0 000-9.16zm-.222 3.7l1.035.533c.614.31.953.985.834 1.662a1.52 1.52 0 01-.895 1.169v.137a.636.636 0 01-1.272 0v-.1a1.881 1.881 0 01-1.134-1.034.636.636 0 011.167-.508.61.61 0 00.615.366.27.27 0 00.263-.235.306.306 0 00-.161-.329l-1.035-.532a1.569 1.569 0 01-.826-1.7c.1-.589.534-1.065 1.111-1.218v-.1a.636.636 0 011.272 0v.235c.405.192.727.524.907.935a.636.636 0 11-1.167.507.614.614 0 00-.615-.365.274.274 0 00-.258.235.294.294 0 00.159.344V5.7zM16.425 12.784a1.431 1.431 0 00-1.1.34 1.2 1.2 0 00-.933-.849 1.415 1.415 0 00-1.055.3 1.309 1.309 0 00-.981-.813 1.426 1.426 0 00-1.189.445V8.992a1.042 1.042 0 00-.686-1.008 1.021 1.021 0 00-1.35.965v8.143a1.018 1.018 0 01-1.018-1.018v-.92a.353.353 0 00-.353-.353h-.307c-.76 0-1.376.616-1.376 1.376v2.513c0 .44.19.858.521 1.148l1.37 1.2c.278.244.636.379 1.006.379h5.631c.405 0 .793-.16 1.08-.447l1.141-1.142c.286-.286.447-.674.447-1.079v-4.911a1.056 1.056 0 00-.848-1.054zm-8.568-1.032H6.58a.509.509 0 01-.509-.509V5.136c0-.281.228-.509.509-.509h4.8c.195-.546.47-1.061.816-1.527h-8.16A2.035 2.035 0 002 5.136v6.107c0 1.124.912 2.036 2.036 2.036h3.817l.004-1.527zM4.442 9.047a.857.857 0 11.605-.25.857.857 0 01-.609.25h.004z"/></g></svg>