<svg xmlns="http://www.w3.org/2000/svg" width="60" height="60" viewBox="0 0 60 60"><g transform="translate(-24 -267)"><circle cx="30" cy="30" r="30" transform="translate(24 267)" fill="#ffe457"/><g transform="translate(-39.387 134.806)"><g transform="translate(76.387 149.602)"><path d="M92.989,200.335a39.228,39.228,0,0,1-5.743-.383,26.308,26.308,0,0,1-6.58-1.712,10.436,10.436,0,0,1-2.9-1.729,3.752,3.752,0,0,1-1.319-2.022,2.767,2.767,0,0,1,.641-2.368,7.294,7.294,0,0,1,2.285-1.815,15.89,15.89,0,0,1,2.12-.955.225.225,0,0,1,.23.015,14.023,14.023,0,0,0,4.433,1.78,29.542,29.542,0,0,0,7.588.761,27.625,27.625,0,0,0,7.016-.968,13.211,13.211,0,0,0,3.527-1.5.237.237,0,0,1,.232-.038,11.586,11.586,0,0,1,3.668,2.086,3.744,3.744,0,0,1,1.2,1.836,2.722,2.722,0,0,1-.578,2.419,7.205,7.205,0,0,1-2.414,1.915,19.429,19.429,0,0,1-4.693,1.7,33.912,33.912,0,0,1-5.032.8C95.424,200.281,94.175,200.342,92.989,200.335Z" transform="translate(-76.387 -175.466)" fill="#303033"/><path d="M100.683,178.437a27.32,27.32,0,0,1-7.557-.971,12.407,12.407,0,0,1-3.148-1.33,5.039,5.039,0,0,1-1.327-1.129,2.127,2.127,0,0,1,.043-2.887,5.842,5.842,0,0,1,1.739-1.339,12.814,12.814,0,0,1,1.945-.835.292.292,0,0,1,.253.018,14,14,0,0,0,4.026,1.276,22.429,22.429,0,0,0,4.442.335,19.287,19.287,0,0,0,6.726-1.2,8.645,8.645,0,0,0,.888-.4.27.27,0,0,1,.234-.04,10.184,10.184,0,0,1,3.133,1.6,3.826,3.826,0,0,1,.8.848,2.068,2.068,0,0,1-.02,2.469,4.962,4.962,0,0,1-1.647,1.415,14.164,14.164,0,0,1-3.876,1.457,27.9,27.9,0,0,1-6.32.725Z" transform="translate(-84.018 -162.827)" fill="#303033"/><path d="M105.688,157.519a19.4,19.4,0,0,1-5.932-.919,7.435,7.435,0,0,1-2.659-1.424,2.257,2.257,0,0,1-.833-1.422,1.864,1.864,0,0,1,.505-1.471,5.493,5.493,0,0,1,2.045-1.4,14.559,14.559,0,0,1,3.593-1,22.18,22.18,0,0,1,4.7-.247,16.669,16.669,0,0,1,6.3,1.379,4.714,4.714,0,0,1,1.881,1.411,1.787,1.787,0,0,1-.067,2.368,5.4,5.4,0,0,1-2.066,1.437,14.139,14.139,0,0,1-3.468.992A23.472,23.472,0,0,1,105.688,157.519Z" transform="translate(-89.321 -149.602)" fill="#303033"/></g></g></g></svg>