<svg xmlns="http://www.w3.org/2000/svg" width="34" height="34" viewBox="0 0 34 34">
  <g id="Group_719" data-name="Group 719" transform="translate(-66 -280)">
    <circle id="Ellipse_15" data-name="Ellipse 15" cx="17" cy="17" r="17" transform="translate(66 280)" fill="#ffe457"/>
    <g id="Group_54" data-name="Group 54" transform="translate(72 290.431)">
      <g id="Group_53" data-name="Group 53" transform="translate(0 0)">
        <g id="Group_52" data-name="Group 52">
          <path id="Path_227" data-name="Path 227" d="M265.328,251.671a.656.656,0,1,0,0-1.313h-2.089a8.01,8.01,0,0,1,.215,1.313Zm-1.576-6.171a6.792,6.792,0,0,0-3.039.72,8.214,8.214,0,0,1,2.074,2.825h1.1v-.919a.656.656,0,1,1,1.313,0v.919h.131a1.961,1.961,0,0,1,1.457,3.282,1.961,1.961,0,0,1-1.457,3.282H265.2v.919a.656.656,0,1,1-1.313,0v-.919h-1.1a8.214,8.214,0,0,1-2.074,2.825,6.825,6.825,0,1,0,3.039-12.934Zm1.576,8.8a.656.656,0,1,0,0-1.313h-1.874a8.01,8.01,0,0,1-.215,1.313Z" transform="translate(-248.523 -245.5)" fill="#303032"/>
          <path id="Path_228" data-name="Path 228" d="M244.327,245.5a6.827,6.827,0,1,0,6.827,6.827A6.827,6.827,0,0,0,244.327,245.5Zm-.544,5.841,1.695.872a2.178,2.178,0,0,1,1.163,2.318,2.11,2.11,0,0,1-1.471,1.713v.489a.656.656,0,0,1-1.313,0v-.455a2.69,2.69,0,0,1-1.89-1.553.656.656,0,0,1,1.2-.523,1.39,1.39,0,0,0,1.4.829c.027,0,.059-.006.091-.012a.808.808,0,0,0,.686-.7.875.875,0,0,0-.467-.943l-1.7-.872a2.188,2.188,0,0,1-1.152-2.364,2.121,2.121,0,0,1,1.827-1.747v-.475a.656.656,0,1,1,1.313,0v.633a2.679,2.679,0,0,1,1.518,1.439.656.656,0,0,1-1.2.523,1.378,1.378,0,0,0-1.395-.829.835.835,0,0,0-.767.7A.863.863,0,0,0,243.783,251.341Z" transform="translate(-237.5 -245.5)" fill="#303032"/>
        </g>
      </g>
    </g>
  </g>
</svg>
