<svg xmlns="http://www.w3.org/2000/svg" width="60" height="60" viewBox="0 0 60 60"><g transform="translate(-24 -145)"><circle cx="30" cy="30" r="30" transform="translate(24 145)" fill="#ffe457"/><g transform="translate(-185.124 -90.809)"><path d="M222.124,252.039a.38.38,0,0,1,.4-.23q4.928,0,9.857,0a.4.4,0,0,1,.378.21q5.49,8.785,10.986,17.565.568.908,1.137,1.816a.345.345,0,0,1,0,.4q-2.473,3.941-4.944,7.883a.314.314,0,0,1-.4.155.368.368,0,0,1-.168-.159q-1-1.593-2-3.186l-7.568-12.06-7.6-12.1c-.027-.044-.052-.089-.078-.134Z" transform="translate(0 0)" fill="#434346"/><path d="M395,251.821h6.636a.309.309,0,0,1,.313.146.351.351,0,0,1-.023.379q-3.318,5.3-6.631,10.593a.33.33,0,0,1-.592,0q-3.313-5.3-6.635-10.591a.38.38,0,0,1-.084-.215.311.311,0,0,1,.292-.312c.032,0,.064,0,.1,0Z" transform="translate(-144.869 -0.01)" fill="#434346"/></g></g></svg>