<svg xmlns="http://www.w3.org/2000/svg" xmlns:xlink="http://www.w3.org/1999/xlink" width="34" height="34" viewBox="0 0 34 34">
  <defs>
    <linearGradient id="linear-gradient" x1="0.832" y1="0.16" x2="0.189" y2="0.876" gradientUnits="objectBoundingBox">
      <stop offset="0" stop-color="#ffe457"/>
      <stop offset="0.473" stop-color="#ffec8f"/>
      <stop offset="1" stop-color="#ffd717"/>
    </linearGradient>
  </defs>
  <g id="Group_722" data-name="Group 722" transform="translate(-271 -281)">
    <circle id="Ellipse_17" data-name="Ellipse 17" cx="17" cy="17" r="17" transform="translate(271 281)" fill="url(#linear-gradient)"/>
    <g id="Group_66" data-name="Group 66" transform="translate(278 287)">
      <g id="Group_65" data-name="Group 65" transform="translate(0 0)">
        <g id="Group_64" data-name="Group 64">
          <path id="Path_235" data-name="Path 235" d="M177.014,318.434a5.514,5.514,0,1,0,5.514,5.514A5.514,5.514,0,0,0,177.014,318.434Zm-.974,3.885a.656.656,0,1,1,0,1.313h-.131v.788h.131a.656.656,0,1,1,0,1.313h-.118a.917.917,0,0,0,1.824-.131.656.656,0,1,1,1.313,0,2.227,2.227,0,0,1-4.45.131h-.145a.656.656,0,1,1,0-1.313h.131v-.788h-.131a.656.656,0,1,1,0-1.313h.145a2.227,2.227,0,0,1,4.45.131.656.656,0,1,1-1.313,0,.917.917,0,0,0-1.824-.131Zm-1.824-4.624a.645.645,0,0,0,.1.007.658.658,0,0,0,.649-.562,5.24,5.24,0,0,1,2.422-3.7l.216.476a.419.419,0,0,0,.75.026l.929-1.718a.418.418,0,0,0-.276-.608l-1.906-.43a.419.419,0,0,0-.473.582l.216.475a6.546,6.546,0,0,0-3.177,4.71A.658.658,0,0,0,174.217,317.7Z" transform="translate(-171.5 -308.981)" fill="#313133"/>
          <path id="Path_236" data-name="Path 236" d="M194.014,307a5.514,5.514,0,1,0,5.514,5.514A5.514,5.514,0,0,0,194.014,307Zm-.36,4.457,1.213.624a1.742,1.742,0,0,1,.931,1.853,1.692,1.692,0,0,1-1.05,1.325v.221a.656.656,0,1,1-1.313,0V315.3a2.114,2.114,0,0,1-1.336-1.185.657.657,0,1,1,1.2-.523.807.807,0,0,0,.81.481l.059-.007a.391.391,0,0,0,.329-.342.444.444,0,0,0-.235-.479l-1.213-.624a1.751,1.751,0,0,1-.922-1.891,1.7,1.7,0,0,1,1.3-1.37v-.185a.656.656,0,1,1,1.313,0v.324a2.114,2.114,0,0,1,1.071,1.083.656.656,0,1,1-1.2.523.808.808,0,0,0-.809-.481.409.409,0,0,0-.382.347A.434.434,0,0,0,193.655,311.457Zm3.42,7.574a.653.653,0,0,0-.745.554,5.275,5.275,0,0,1-2.437,3.7l-.269-.547a.419.419,0,0,0-.75,0L192,324.481a.419.419,0,0,0,.295.6l1.918.371a.419.419,0,0,0,.456-.6l-.19-.387a6.592,6.592,0,0,0,3.153-4.694A.656.656,0,0,0,197.075,319.031Z" transform="translate(-179.572 -307)" fill="#313133"/>
        </g>
      </g>
    </g>
  </g>
</svg>
