<svg xmlns="http://www.w3.org/2000/svg" width="34" height="34" viewBox="0 0 34 34">
  <g id="Group_721" data-name="Group 721" transform="translate(-200 -280)">
    <circle id="Ellipse_16" data-name="Ellipse 16" cx="17" cy="17" r="17" transform="translate(200 280)" fill="#ffe457"/>
    <g id="Group_63" data-name="Group 63" transform="translate(207.797 286.459)">
      <g id="Group_62" data-name="Group 62" transform="translate(0 0)">
        <g id="Group_61" data-name="Group 61">
          <path id="Path_233" data-name="Path 233" d="M326.4,125.44l-.051-.007c.006-.267.009-.554.009-.888,0-7.941-4.2-10.5-7-11.554h-3c-2.6,1.05-6.805,3.087-6.805,11.554,0,.333,0,.622.012.887l-.054.008a1.189,1.189,0,0,0,.068,2.359l2.3.124a22.785,22.785,0,0,0,12.144,0l2.3-.124a1.189,1.189,0,0,0,.068-2.359Zm-8.825-6,1.364.7a1.879,1.879,0,0,1,1,2,1.824,1.824,0,0,1-1.183,1.448v.3a.656.656,0,0,1-1.313,0v-.263a2.3,2.3,0,0,1-1.51-1.3.657.657,0,0,1,1.2-.524.98.98,0,0,0,.994.591l.064-.008a.52.52,0,0,0,.446-.454.579.579,0,0,0-.308-.624l-1.364-.7a1.888,1.888,0,0,1-.994-2.04,1.83,1.83,0,0,1,1.467-1.488V116.8a.656.656,0,1,1,1.313,0v.423a2.279,2.279,0,0,1,1.212,1.193.657.657,0,0,1-1.2.524.981.981,0,0,0-.994-.591.547.547,0,0,0-.5.457A.569.569,0,0,0,317.573,119.435Z" transform="translate(-308.5 -107.224)" fill="#313133"/>
          <path id="Path_234" data-name="Path 234" d="M325.806,102.124c-.454-.291-1.234-.007-1.889.617a.808.808,0,0,1-1.125,0c-.654-.625-1.427-.9-1.89-.618-1.528.926.53,4.148.719,4.334h3.465C325.276,106.272,327.252,103.05,325.806,102.124Z" transform="translate(-314.123 -102.009)" fill="#313133"/>
        </g>
      </g>
    </g>
  </g>
</svg>
