<svg xmlns="http://www.w3.org/2000/svg" width="34" height="34" viewBox="0 0 34 34">
  <g id="Group_720" data-name="Group 720" transform="translate(-133 -280)">
    <circle id="Ellipse_14" data-name="Ellipse 14" cx="17" cy="17" r="17" transform="translate(133 280)" fill="#ffe457"/>
    <g id="Group_58" data-name="Group 58" transform="translate(139.259 287.459)">
      <g id="Group_57" data-name="Group 57" transform="translate(0 0)">
        <g id="Group_56" data-name="Group 56">
          <g id="Group_55" data-name="Group 55">
            <path id="Path_229" data-name="Path 229" d="M39.583,176.358l-1.208-1.007a2.662,2.662,0,1,0-1.028,1.194l1.245,1.038A5.963,5.963,0,0,1,39.583,176.358Zm2.209,11.328.343-1.287a5.887,5.887,0,0,1-1.468-.61l-.414,1.552a2.07,2.07,0,1,0,1.538.345Zm12.834-9.847a2.114,2.114,0,0,0-3.235,1.122l-2.015.134a5.891,5.891,0,0,1,.217,1.564l1.9-.127a2.123,2.123,0,0,0,.727.858,2.145,2.145,0,1,0,2.4-3.552Z" transform="translate(-33.275 -171.627)" fill="#303032"/>
            <path id="Path_230" data-name="Path 230" d="M48.86,180.034a4.625,4.625,0,1,0,4.625,4.625A4.625,4.625,0,0,0,48.86,180.034ZM48.6,183.77l1.068.549a1.61,1.61,0,0,1,.861,1.714,1.568,1.568,0,0,1-.924,1.206v.307a.656.656,0,0,1-1.313,0v-.265a1.937,1.937,0,0,1-1.17-1.067.657.657,0,1,1,1.2-.524.633.633,0,0,0,.634.377.28.28,0,0,0,.272-.242.315.315,0,0,0-.166-.34L48,184.936a1.619,1.619,0,0,1-.852-1.75,1.574,1.574,0,0,1,1.145-1.257v-.1a.656.656,0,0,1,1.313,0v.242a1.927,1.927,0,0,1,.936.966.656.656,0,0,1-1.2.524.63.63,0,0,0-.635-.378.281.281,0,0,0-.266.242A.3.3,0,0,0,48.6,183.77Z" transform="translate(-38.479 -175.619)" fill="#303032"/>
          </g>
        </g>
      </g>
    </g>
  </g>
</svg>
