<svg xmlns="http://www.w3.org/2000/svg" width="40" height="40" viewBox="0 0 40 40"><g transform="translate(-271 -483)"><g transform="translate(271 483)" fill="none" stroke="#ffe457" stroke-width="2" opacity="0.8"><circle cx="20" cy="20" r="20" stroke="none"/><circle cx="20" cy="20" r="19" fill="none"/></g><g transform="translate(-54.024 -133.025)"><path d="M374.445,629.979c0,.422.016.844,0,1.264a.924.924,0,0,1-.861.894.965.965,0,0,1-1.078-.629,1.931,1.931,0,0,1-.087-.57c-.011-.6,0-1.2-.006-1.8a.951.951,0,0,0-1.061-1.045c-.649-.009-1.3.016-1.946-.009a.99.99,0,0,1-.963-1.407,1.071,1.071,0,0,1,.69-.586,14.235,14.235,0,0,1,2.863.015,2.953,2.953,0,0,1,2.457,2.9c.009.324,0,.649,0,.973Z" transform="translate(-19.1)" fill="#ffe457"/><path d="M335.024,629.936a10.614,10.614,0,0,1,.148-1.587,2.937,2.937,0,0,1,2.847-2.276c.7-.018,1.395-.016,2.092,0a.991.991,0,0,1,1.064,1.01,1.011,1.011,0,0,1-1.067,1.025c-.632.02-1.265,0-1.9.007a.966.966,0,0,0-1.1,1.1c-.005.616.009,1.233,0,1.849a1.023,1.023,0,0,1-1.032,1.111,1,1,0,0,1-1.007-1.117c-.007-.372,0-.746,0-1.119Z" transform="translate(0 -0.019)" fill="#ffe457"/><path d="M370.526,665.407c-.373,0-.747.006-1.12,0a.985.985,0,0,1-1.053-.969,1,1,0,0,1,1.025-1.064c.632-.024,1.266-.006,1.9-.009.784,0,1.132-.343,1.139-1.117.005-.584,0-1.169,0-1.753a1.076,1.076,0,0,1,1.017-1.193,1.045,1.045,0,0,1,1.024,1.165c.006.681.011,1.364-.009,2.045a3,3,0,0,1-2.951,2.9C371.176,665.412,370.851,665.407,370.526,665.407Z" transform="translate(-19.107 -19.077)" fill="#ffe457"/><path d="M339.02,665.449a10.561,10.561,0,0,1-1.591-.134,2.944,2.944,0,0,1-2.308-2.875c-.015-.681-.013-1.364,0-2.045a1.018,1.018,0,0,1,1-1.088,1.054,1.054,0,0,1,1.037,1.071c.021.567.005,1.136.006,1.7,0,1,.29,1.284,1.311,1.286.585,0,1.17-.016,1.753.01a.949.949,0,0,1,.97.849.937.937,0,0,1-.536,1.083,3.425,3.425,0,0,1-.906.1c-.242.014-.486,0-.73,0Z" transform="translate(-0.05 -19.081)" fill="#ffe457"/><path d="M353.487,660.017a6,6,0,0,1-3.519-1.05c-.578-.413-.751-.82-.582-1.309a.991.991,0,0,1,1.612-.474,4.062,4.062,0,0,0,4.055.448,3.9,3.9,0,0,0,.787-.473,1,1,0,0,1,1.4.138.969.969,0,0,1-.109,1.429A5.549,5.549,0,0,1,353.487,660.017Z" transform="translate(-8.198 -17.722)" fill="#ffe457"/><path d="M357.144,642.86c0,.551.044,1.107-.009,1.653a2.2,2.2,0,0,1-1.95,1.876,1.006,1.006,0,0,1-1.046-.768.9.9,0,0,1,.5-1.135c.449-.151.483-.42.477-.808-.012-.844,0-1.688.035-2.531a.917.917,0,0,1,.756-.849.884.884,0,0,1,1,.34,1.693,1.693,0,0,1,.259.81c.041.467.011.941.011,1.412Z" transform="translate(-10.935 -8.16)" fill="#ffe457"/><path d="M347.018,641.794c0-.162,0-.325,0-.487a1.012,1.012,0,0,1,2.021-.1,6.73,6.73,0,0,1,0,1.265,1.006,1.006,0,0,1-1.083.9.979.979,0,0,1-.936-.99C347.013,642.184,347.019,641.989,347.018,641.794Z" transform="translate(-6.875 -8.168)" fill="#ffe457"/><path d="M368.02,641.863c0,.163,0,.325,0,.487a.988.988,0,0,1-.958,1.021,1.015,1.015,0,0,1-1.071-.969,8.906,8.906,0,0,1,0-1.12,1.016,1.016,0,1,1,2.031.045C368.024,641.506,368.02,641.684,368.02,641.863Z" transform="translate(-17.742 -8.169)" fill="#ffe457"/></g></g></svg>