<svg xmlns="http://www.w3.org/2000/svg" width="60" height="60" viewBox="0 0 60 60"><g transform="translate(-24 -145)"><circle cx="30" cy="30" r="30" transform="translate(24 145)" fill="#ffe457"/><g transform="matrix(0.966, 0.259, -0.259, 0.966, 48.013, 158.715)"><path d="M18.4,15.444a5.751,5.751,0,0,0-3.27-2,4.9,4.9,0,0,0,2.932-4.725,5.844,5.844,0,0,0-.312-1.967,4.674,4.674,0,0,0-.8-1.458,4.493,4.493,0,0,0-1.253-1.01,8.123,8.123,0,0,0-1.5-.661,10.148,10.148,0,0,0-1.724-.364c-.273-.036-.53-.065-.776-.091L11.646,0,9.506.028l.041,3.032c-.178,0-.349-.006-.538-.006H7.621l-.04-3L5.44.083l.04,2.972H0V6.1H1.73A1.156,1.156,0,0,1,2.887,7.259V20.971A1.156,1.156,0,0,1,1.73,22.127H.469L0,25.175H5.777l.041,3.055,2.14-.028-.041-3.027H9.842l.04,3,2.14-.028-.04-3a11.173,11.173,0,0,0,2.872-.486,6.882,6.882,0,0,0,2.56-1.39,6.052,6.052,0,0,0,1.473-1.983,5.63,5.63,0,0,0,.5-2.362A6.1,6.1,0,0,0,18.4,15.444ZM9.236,6.367a8.067,8.067,0,0,1,3.585.6,2.3,2.3,0,0,1,1.14,2.241,2.982,2.982,0,0,1-.334,1.458,2.382,2.382,0,0,1-.919.942,4.39,4.39,0,0,1-1.239.479,6.6,6.6,0,0,1-1.428.144h-3.3V6.367ZM10.27,21.878H6.791V15.361h3.388a6.836,6.836,0,0,1,3.715.729,3.051,3.051,0,0,1,1.041,2.674Q14.934,21.878,10.27,21.878Z" transform="translate(0)" fill="#424245"/></g></g></svg>