<svg xmlns="http://www.w3.org/2000/svg" xmlns:xlink="http://www.w3.org/1999/xlink" width="46" height="46" viewBox="0 0 46 46">
  <defs>
    <linearGradient id="linear-gradient" x1="0.605" y1="0.081" x2="0.124" y2="0.826" gradientUnits="objectBoundingBox">
      <stop offset="0" stop-color="#41deff"/>
      <stop offset="1" stop-color="#5a91ff"/>
    </linearGradient>
  </defs>
  <g id="logo-xrp" transform="translate(-42 -656)">
    <circle id="Ellipse_19" data-name="Ellipse 19" cx="23" cy="23" r="23" transform="translate(42 656)" fill="url(#linear-gradient)"/>
    <g id="Group_50" data-name="Group 50" transform="translate(51.458 666.5)">
      <path id="Path_205" data-name="Path 205" d="M323.256,87.315a4.787,4.787,0,0,1,3.543,1.913,2.708,2.708,0,0,0,2.174,1.078h.434a2.72,2.72,0,0,0,2.346-1.36l.226-.391a2.76,2.76,0,0,0,.137-2.447,4.807,4.807,0,1,1,5.037,2.919,2.685,2.685,0,0,0-2.01,1.3l-.237.41a2.72,2.72,0,0,0,.008,2.733l.236.4a2.715,2.715,0,0,0,2,1.322,4.8,4.8,0,1,1-5,2.841,2.668,2.668,0,0,0-.172-2.409l-.2-.349a2.718,2.718,0,0,0-2.354-1.345h-.491a2.745,2.745,0,0,0-2.16,1.1,4.8,4.8,0,1,1-3.512-7.719Z" transform="translate(-318.155 -79.457)" fill="#fff"/>
    </g>
  </g>
</svg>
