<svg xmlns="http://www.w3.org/2000/svg" xmlns:xlink="http://www.w3.org/1999/xlink" width="46" height="46" viewBox="0 0 46 46">
  <defs>
    <linearGradient id="linear-gradient" x1="0.605" y1="0.081" x2="0.124" y2="0.826" gradientUnits="objectBoundingBox">
      <stop offset="0" stop-color="#ff9341"/>
      <stop offset="1" stop-color="#ffba5a"/>
    </linearGradient>
  </defs>
  <g id="logo-btc" transform="translate(-42 -572)">
    <circle id="Ellipse_18" data-name="Ellipse 18" cx="23" cy="23" r="23" transform="translate(42 572)" fill="url(#linear-gradient)"/>
    <g id="Group_48" data-name="Group 48" transform="matrix(0.966, 0.259, -0.259, 0.966, 59.305, 578.239)">
      <path id="Path_201" data-name="Path 201" d="M18.981,15.931a5.932,5.932,0,0,0-3.374-2.061A5.055,5.055,0,0,0,18.633,9a6.028,6.028,0,0,0-.321-2.029,4.821,4.821,0,0,0-.83-1.5,4.635,4.635,0,0,0-1.293-1.042,8.379,8.379,0,0,0-1.552-.682,10.468,10.468,0,0,0-1.778-.376c-.282-.037-.546-.067-.8-.093L12.013,0,9.805.029l.042,3.128c-.183,0-.36-.006-.555-.006H7.861L7.82.056,5.612.086l.041,3.066H0V6.3H1.785A1.193,1.193,0,0,1,2.978,7.488V21.632a1.193,1.193,0,0,1-1.193,1.192H.483L0,25.968H5.959L6,29.12l2.208-.029-.042-3.122h1.986l.042,3.1,2.208-.029-.042-3.09a11.526,11.526,0,0,0,2.962-.5,7.1,7.1,0,0,0,2.64-1.434,6.243,6.243,0,0,0,1.52-2.045A5.808,5.808,0,0,0,20,19.528,6.289,6.289,0,0,0,18.981,15.931ZM9.528,6.568a8.321,8.321,0,0,1,3.7.619A2.371,2.371,0,0,1,14.4,9.5a3.076,3.076,0,0,1-.345,1.5,2.457,2.457,0,0,1-.948.972,4.529,4.529,0,0,1-1.278.494,6.806,6.806,0,0,1-1.473.149h-3.4V6.568Zm1.066,16H7V15.845H10.5a7.052,7.052,0,0,1,3.832.752A3.147,3.147,0,0,1,15.4,19.355Q15.4,22.568,10.594,22.568Z" transform="translate(0 0)" fill="#fff"/>
    </g>
  </g>
</svg>
