<svg xmlns="http://www.w3.org/2000/svg" xmlns:xlink="http://www.w3.org/1999/xlink" preserveAspectRatio="none" viewBox="0 0 375 100"><defs><linearGradient id="a" x1="0.5" x2="0.639" y2="0.658" gradientUnits="objectBoundingBox"><stop offset="0" stop-color="#f2c126"/><stop offset="1" stop-color="#ffdc6e"/></linearGradient><linearGradient id="b" x1="0.5" x2="0.639" y2="0.658" gradientUnits="objectBoundingBox"><stop offset="0" stop-color="#ffdb6d" stop-opacity="0.478"/><stop offset="1" stop-color="#ffdd70" stop-opacity="0.702"/></linearGradient><linearGradient id="c" x1="0.5" x2="0.639" y2="0.658" gradientUnits="objectBoundingBox"><stop offset="0" stop-color="#fed761"/><stop offset="1" stop-color="#ffdb6d"/></linearGradient><clipPath id="e"><rect width="375" height="100"/></clipPath></defs><g id="d" clip-path="url(#e)"><g transform="translate(379.46 252.138) rotate(180)"><path d="M832.6,633.063c-44.887,26.187-113.846,31.884-113.849,31.884-69.233,4.61-223.175-28.91-223.175-28.91C386.456,606.5,364.912,721.46,346.263,711.89q-16.288-8.359-10.1-44.85a46.978,46.978,0,0,0,.714-7.881V465.39c0-45.6,46.127-82.556,103.025-82.556H763.671c56.9,0,103.025,36.96,103.025,82.556V583.038a46.071,46.071,0,0,1-7.018,24.667l-.108.173C851.389,620.818,839.876,628.816,832.6,633.063Z" transform="translate(-383.545 -414.324)" fill="url(#a)"/><path d="M832.6,633.063c-44.887,26.187-113.846,31.884-113.849,31.884-69.233,4.61-223.175-28.91-223.175-28.91C386.456,606.5,364.912,721.46,346.263,711.89q-16.288-8.359-10.1-44.85a46.978,46.978,0,0,0,.714-7.881V465.39c0-45.6,46.127-82.556,103.025-82.556H763.671c56.9,0,103.025,36.96,103.025,82.556V583.038a46.071,46.071,0,0,1-7.018,24.667l-.108.173C851.389,620.818,839.876,628.816,832.6,633.063Z" transform="translate(-313.483 -560.579) rotate(8)" fill="url(#b)"/><path d="M866.991,650.339c-47.986,28-121.706,34.086-121.709,34.086C671.268,689.353,506.7,653.519,506.7,653.519c-116.651-31.58-139.683,91.322-159.62,81.091q-17.412-8.936-10.8-47.947a50.221,50.221,0,0,0,.763-8.425V471.09c0-48.744,49.312-88.256,110.139-88.256H793.306c60.83,0,110.138,39.512,110.138,88.256V596.861a49.251,49.251,0,0,1-7.5,26.37l-.116.186C887.081,637.25,874.772,645.8,866.991,650.339Z" transform="matrix(0.966, -0.259, 0.259, 0.966, -551.318, -311.712)" opacity="0.12" fill="url(#c)"/></g></g></svg>