<svg xmlns="http://www.w3.org/2000/svg" width="17.167" height="14.14" viewBox="0 0 17.167 14.14"><g transform="translate(0 0)"><path d="M-341.843,202.506a7.079,7.079,0,0,1-1.734.5c.28-.047.692-.553.856-.757a3.189,3.189,0,0,0,.578-1.052c.015-.03.026-.067,0-.09a.1.1,0,0,0-.092.008,8.859,8.859,0,0,1-2.06.788.138.138,0,0,1-.142-.038,1.645,1.645,0,0,0-.18-.184,3.643,3.643,0,0,0-1-.612,3.477,3.477,0,0,0-1.53-.246,3.661,3.661,0,0,0-1.452.41,3.744,3.744,0,0,0-1.171.957,3.6,3.6,0,0,0-.7,1.4,3.8,3.8,0,0,0-.037,1.479c.011.082,0,.093-.071.082a11,11,0,0,1-7.078-3.6c-.083-.094-.128-.094-.2.007a3.589,3.589,0,0,0,.612,4.24c.139.131.281.263.435.383a3.609,3.609,0,0,1-1.366-.383c-.083-.052-.124-.022-.131.072a2.175,2.175,0,0,0,.022.406,3.63,3.63,0,0,0,2.237,2.893,2.121,2.121,0,0,0,.454.139,4.04,4.04,0,0,1-1.34.041c-.1-.019-.135.03-.1.124a3.768,3.768,0,0,0,2.815,2.357c.128.022.255.022.383.052-.008.012-.015.012-.023.023a4.46,4.46,0,0,1-1.922,1.018,6.876,6.876,0,0,1-2.919.374c-.157-.023-.19-.021-.232,0s-.006.064.045.1c.2.131.4.248.608.361a9.64,9.64,0,0,0,1.951.78,10.393,10.393,0,0,0,10.09-2.359,10.588,10.588,0,0,0,2.792-7.724c0-.111.131-.172.209-.231a6.8,6.8,0,0,0,1.367-1.428.415.415,0,0,0,.085-.274v-.015C-341.779,202.461-341.773,202.474-341.843,202.506Z" transform="translate(358.945 -200.811)" fill="#343437"/><path d="M-344.274,241.327Z" transform="translate(349.373 -227.248)" fill="#343437" fill-rule="evenodd"/><path d="M-344.52,241.327c-.023,0-.283,0,0,0Z" transform="translate(349.618 -227.248)" fill="#343437" fill-rule="evenodd"/><path d="M-342.611,241.346c0-.029.3,0,0,0C-342.611,241.331-342.573,241.346-342.611,241.346Z" transform="translate(348.287 -227.252)" fill="#343437" fill-rule="evenodd"/><path d="M-325.271,200.871a.061.061,0,0,1-.071,0Z" transform="translate(337.019 -200.85)" fill="#343437" fill-rule="evenodd"/></g></svg>