<svg xmlns="http://www.w3.org/2000/svg" width="8.203" height="17.656" viewBox="0 0 8.203 17.656"><g transform="translate(0)"><path d="M-217.646,204.649v8.536a.222.222,0,0,0,.222.222h3.17a.222.222,0,0,0,.222-.222V204.51h2.3a.222.222,0,0,0,.222-.2l.221-2.614a.222.222,0,0,0-.222-.241h-2.519V199.6a.787.787,0,0,1,.787-.787h1.771a.222.222,0,0,0,.222-.222v-2.614a.223.223,0,0,0-.222-.222h-2.993a3.18,3.18,0,0,0-3.18,3.18v2.52h-1.585a.222.222,0,0,0-.222.222v2.614a.222.222,0,0,0,.222.222h1.585Z" transform="translate(219.453 -195.751)" fill="#343437" fill-rule="evenodd"/></g></svg>