<svg xmlns="http://www.w3.org/2000/svg" width="18.417" height="18.417" viewBox="0 0 18.417 18.417"><path d="M-98.1,193.094a1.083,1.083,0,0,0-1.083,1.083A1.083,1.083,0,0,0-98.1,195.26a1.083,1.083,0,0,0,1.083-1.083A1.083,1.083,0,0,0-98.1,193.094Zm-4.813,1.389a4.554,4.554,0,0,0-4.548,4.548,4.553,4.553,0,0,0,4.548,4.548,4.553,4.553,0,0,0,4.548-4.548A4.553,4.553,0,0,0-102.911,194.483Zm0,7.462a2.917,2.917,0,0,1-2.913-2.913,2.917,2.917,0,0,1,2.913-2.913A2.917,2.917,0,0,1-100,199.031,2.917,2.917,0,0,1-102.911,201.945Zm9.177-6.693a5.548,5.548,0,0,0-5.548-5.547H-106.6a5.548,5.548,0,0,0-5.548,5.547v7.322a5.548,5.548,0,0,0,5.548,5.547h7.322a5.548,5.548,0,0,0,5.548-5.547Zm-1.737,7.322a3.81,3.81,0,0,1-3.81,3.81H-106.6a3.81,3.81,0,0,1-3.81-3.81v-7.322a3.81,3.81,0,0,1,3.81-3.81h7.322a3.81,3.81,0,0,1,3.81,3.81Z" transform="translate(112.151 -189.704)" fill="#343437"/></svg>