<svg xmlns="http://www.w3.org/2000/svg" width="17.784" height="17.784" viewBox="0 0 17.784 17.784"><g transform="translate(0)"><g transform="translate(0 0)"><path d="M-222.3,93.372a8.9,8.9,0,0,0-8.892,8.892,8.824,8.824,0,0,0,1.42,4.819l-1.351,2.976a.777.777,0,0,0,.116.825.776.776,0,0,0,.591.272.784.784,0,0,0,.205-.027l3.722-1.021a8.89,8.89,0,0,0,4.188,1.049,8.9,8.9,0,0,0,8.892-8.892A8.9,8.9,0,0,0-222.3,93.372Zm0,16.231a7.33,7.33,0,0,1-3.7-1,.778.778,0,0,0-.392-.106.78.78,0,0,0-.205.028l-2.431.667.847-1.866a.777.777,0,0,0-.077-.775,7.284,7.284,0,0,1-1.385-4.288,7.347,7.347,0,0,1,7.339-7.339,7.347,7.347,0,0,1,7.339,7.339A7.347,7.347,0,0,1-222.3,109.6Z" transform="translate(231.195 -93.372)" fill="#343437" fill-rule="evenodd"/><path d="M-210.3,112.669a1.521,1.521,0,0,0-1.3-.292c-.336.138-.551.664-.769.933a.322.322,0,0,1-.417.091,5.87,5.87,0,0,1-2.929-2.509.359.359,0,0,1,.045-.49,1.98,1.98,0,0,0,.532-.864,1.887,1.887,0,0,0-.238-1.022,2.425,2.425,0,0,0-.755-1.138,1.035,1.035,0,0,0-1.123.167,2.279,2.279,0,0,0-.79,1.806,2.556,2.556,0,0,0,.071.573,4.746,4.746,0,0,0,.55,1.268,10.078,10.078,0,0,0,.574.873,8.86,8.86,0,0,0,2.49,2.312,7.534,7.534,0,0,0,1.553.738A3.449,3.449,0,0,0-211,115.4a2.187,2.187,0,0,0,1.639-1.219,1.058,1.058,0,0,0,.076-.622C-209.375,113.131-209.955,112.876-210.3,112.669Z" transform="translate(222.612 -102.445)" fill="#343437" fill-rule="evenodd"/></g></g></svg>